<svg width="600px" height="371px" viewPort="0 0 600 371"><rect x="0" y="0" width="600" height="371" opacity="1" fill="rgb(255,255,255)" stroke="none"></rect><path d="M 84.5,221.5 L 481.5,221.5" opacity="1" fill="none" stroke="rgb(51,51,51)" stroke-width="1" stroke-linecap="butt" stroke-linejoin="miter" stroke-miterlimit="10"></path><path d="M 84.5,180.5 L 481.5,180.5" opacity="1" fill="none" stroke="rgb(204,204,204)" stroke-width="1" stroke-linecap="butt" stroke-linejoin="miter" stroke-miterlimit="10"></path><path d="M 84.5,139.5 L 481.5,139.5" opacity="1" fill="none" stroke="rgb(204,204,204)" stroke-width="1" stroke-linecap="butt" stroke-linejoin="miter" stroke-miterlimit="10"></path><path d="M 84.5,98.5 L 481.5,98.5" opacity="1" fill="none" stroke="rgb(204,204,204)" stroke-width="1" stroke-linecap="butt" stroke-linejoin="miter" stroke-miterlimit="10"></path><path d="M 84.5,56.5 L 481.5,56.5" opacity="1" fill="none" stroke="rgb(204,204,204)" stroke-width="1" stroke-linecap="butt" stroke-linejoin="miter" stroke-miterlimit="10"></path><path d="M 117,222 L 96,222 L 96,76 S 96,74.8954305003384 96.89543050033842,74 L 115,74 S 116.1045694996616,74 117,74.8954305003384 z" opacity="1" fill="rgb(51,102,204)" stroke="none"></path><path d="M 149,222 L 128,222 L 128,86 S 128,84.8954305003384 128.89543050033842,84 L 147,84 S 148.10456949966158,84 149,84.8954305003384 z" opacity="1" fill="rgb(51,102,204)" stroke="none"></path><path d="M 181,222 L 160,222 L 160,91 S 160,89.8954305003384 160.89543050033842,89 L 179,89 S 180.10456949966158,89 181,89.8954305003384 z" opacity="1" fill="rgb(51,102,204)" stroke="none"></path><path d="M 214,222 L 193,222 L 193,98 S 193,96.8954305003384 193.89543050033842,96 L 212,96 S 213.10456949966158,96 214,96.8954305003384 z" opacity="1" fill="rgb(51,102,204)" stroke="none"></path><path d="M 246,222 L 225,222 L 225,119 S 225,117.8954305003384 225.89543050033842,117 L 244,117 S 245.10456949966158,117 246,117.8954305003384 z" opacity="1" fill="rgb(51,102,204)" stroke="none"></path><path d="M 278,222 L 257,222 L 257,124 S 257,122.8954305003384 257.8954305003384,122 L 276,122 S 277.1045694996616,122 278,122.8954305003384 z" opacity="1" fill="rgb(51,102,204)" stroke="none"></path><path d="M 310,222 L 289,222 L 289,125 S 289,123.8954305003384 289.8954305003384,123 L 308,123 S 309.1045694996616,123 310,123.8954305003384 z" opacity="1" fill="rgb(51,102,204)" stroke="none"></path><path d="M 342,222 L 321,222 L 321,130 S 321,128.89543050033842 321.8954305003384,128 L 340,128 S 341.1045694996616,128 342,128.89543050033842 z" opacity="1" fill="rgb(51,102,204)" stroke="none"></path><path d="M 374,222 L 353,222 L 353,134 S 353,132.89543050033842 353.8954305003384,132 L 372,132 S 373.1045694996616,132 374,132.89543050033842 z" opacity="1" fill="rgb(51,102,204)" stroke="none"></path><path d="M 406,222 L 385,222 L 385,148 S 385,146.89543050033842 385.8954305003384,146 L 404,146 S 405.1045694996616,146 406,146.89543050033842 z" opacity="1" fill="rgb(51,102,204)" stroke="none"></path><path d="M 439,222 L 418,222 L 418,150 S 418,148.89543050033842 418.8954305003384,148 L 437,148 S 438.1045694996616,148 439,148.89543050033842 z" opacity="1" fill="rgb(51,102,204)" stroke="none"></path><path d="M 471,222 L 450,222 L 450,180 S 450,178.89543050033842 450.8954305003384,178 L 469,178 S 470.1045694996616,178 471,178.89543050033842 z" opacity="1" fill="rgb(51,102,204)" stroke="none"></path><text x="186.39888888888896" y="9.600000000000001" style="font: 10px sans-serif" text-anchor="start" alignment-baseline="alphabetic" opacity="1" fill="#000" stroke="none" transform="translate(84.55000000000001, 338.7055066079295) rotate(0)">建築</text><text x="100.58604992657854" y="9.600000000000001" style="font: 10px sans-serif" text-anchor="start" alignment-baseline="alphabetic" opacity="1" fill="#000" stroke="none" transform="translate(18.241546876987666, 318.08876651982376) rotate(270)">所佔百分比</text><text x="13.91015625" y="9.600000000000001" style="font: 10px sans-serif" text-anchor="start" alignment-baseline="alphabetic" opacity="1" fill="#000" stroke="none" transform="translate(47.12031250000001, 215.5) rotate(0)">0%</text><text x="6.955078125" y="9.600000000000001" style="font: 10px sans-serif" text-anchor="start" alignment-baseline="alphabetic" opacity="1" fill="#000" stroke="none" transform="translate(47.12031250000001, 174.35416666666669) rotate(0)">25%</text><text x="6.955078125" y="9.600000000000001" style="font: 10px sans-serif" text-anchor="start" alignment-baseline="alphabetic" opacity="1" fill="#000" stroke="none" transform="translate(47.12031250000001, 133.20833333333334) rotate(0)">50%</text><text x="6.955078125" y="9.600000000000001" style="font: 10px sans-serif" text-anchor="start" alignment-baseline="alphabetic" opacity="1" fill="#000" stroke="none" transform="translate(47.12031250000001, 92.06250000000001) rotate(0)">75%</text><text x="0" y="9.600000000000001" style="font: 10px sans-serif" text-anchor="start" alignment-baseline="alphabetic" opacity="1" fill="#000" stroke="none" transform="translate(47.12031250000001, 50.916666666666686) rotate(0)">100%</text><text x="65.20561221098455" y="9.600000000000001" style="font: 10px sans-serif" text-anchor="start" alignment-baseline="alphabetic" opacity="1" fill="#000" stroke="none" transform="translate(19.891202102518193, 313.8461258327045) rotate(-45)">f09 通道區</text><text x="53.205612210984555" y="9.600000000000001" style="font: 10px sans-serif" text-anchor="start" alignment-baseline="alphabetic" opacity="1" fill="#000" stroke="none" transform="translate(52.0205768213666, 313.8461258327045) rotate(-45)">f02 專科教室</text><text x="53.205612210984555" y="9.600000000000001" style="font: 10px sans-serif" text-anchor="start" alignment-baseline="alphabetic" opacity="1" fill="#000" stroke="none" transform="translate(84.149951540215, 313.8461258327045) rotate(-45)">f01 普科教室</text><text x="41.205612210984555" y="9.600000000000001" style="font: 10px sans-serif" text-anchor="start" alignment-baseline="alphabetic" opacity="1" fill="#000" stroke="none" transform="translate(116.27932625906342, 313.8461258327045) rotate(-45)">f06 行政服務區</text><text x="41.205612210984555" y="9.600000000000001" style="font: 10px sans-serif" text-anchor="start" alignment-baseline="alphabetic" opacity="1" fill="#000" stroke="none" transform="translate(148.40870097791185, 313.8461258327045) rotate(-45)">f08 景觀休憩區</text><text x="29.205612210984555" y="9.600000000000001" style="font: 10px sans-serif" text-anchor="start" alignment-baseline="alphabetic" opacity="1" fill="#000" stroke="none" transform="translate(180.53807569676025, 313.8461258327045) rotate(-45)">f05 教職員行政區</text><text x="41.205612210984555" y="9.600000000000001" style="font: 10px sans-serif" text-anchor="start" alignment-baseline="alphabetic" opacity="1" fill="#000" stroke="none" transform="translate(212.66745041560864, 313.8461258327045) rotate(-45)">f03 動態活動區</text><text x="17.205612210984555" y="9.600000000000001" style="font: 10px sans-serif" text-anchor="start" alignment-baseline="alphabetic" opacity="1" fill="#000" stroke="none" transform="translate(244.7968251344571, 313.8461258327045) rotate(-45)">f11 校園圍牆與邊界</text><text x="41.205612210984555" y="9.600000000000001" style="font: 10px sans-serif" text-anchor="start" alignment-baseline="alphabetic" opacity="1" fill="#000" stroke="none" transform="translate(276.9261998533055, 313.8461258327045) rotate(-45)">f04 靜態活動區</text><text x="41.205612210984555" y="9.600000000000001" style="font: 10px sans-serif" text-anchor="start" alignment-baseline="alphabetic" opacity="1" fill="#000" stroke="none" transform="translate(309.0555745721539, 313.8461258327045) rotate(-45)">f12 校園出入口</text><text x="53.205612210984555" y="9.600000000000001" style="font: 10px sans-serif" text-anchor="start" alignment-baseline="alphabetic" opacity="1" fill="#000" stroke="none" transform="translate(341.1849492910023, 313.8461258327045) rotate(-45)">f10 其他設施</text><text x="41.205612210984555" y="9.600000000000001" style="font: 10px sans-serif" text-anchor="start" alignment-baseline="alphabetic" opacity="1" fill="#000" stroke="none" transform="translate(373.31432400985074, 313.8461258327045) rotate(-45)">f07 校園生活區</text><path d="M 503.2101936925752,57.91666666666667 S 503.2101936925752,57.364381916835875 503.6579089427444,56.91666666666667 L 514.2101936925752,56.91666666666667 S 514.7624784424061,56.91666666666667 515.2101936925752,57.364381916835875 L 515.2101936925752,67.91666666666667 S 515.2101936925752,68.46895141649746 514.7624784424061,68.91666666666667 L 504.2101936925752,68.91666666666667 S 503.6579089427444,68.91666666666667 503.2101936925752,68.46895141649746 z" opacity="1" fill="rgb(51,102,204)" stroke="none"></path><text x="0" y="9.600000000000001" style="font: 10px sans-serif" text-anchor="start" alignment-baseline="alphabetic" opacity="1" fill="#000" stroke="none" transform="translate(523.2101936925752, 56.91666666666667) rotate(0)">所佔百分</text><text x="0" y="21.6" style="font: 10px sans-serif" text-anchor="start" alignment-baseline="alphabetic" opacity="1" fill="#000" stroke="none" transform="translate(523.2101936925752, 56.91666666666667) rotate(0)">比</text></svg>